<svg width="86" height="38" viewBox="0 0 86 38" fill="none" xmlns="http://www.w3.org/2000/svg">
    <path
        d="M1.70003 17.78V0.500029H4.96403V14.732H12.404V17.78H1.70003ZM13.4844 17.78V0.500029H24.7644V3.54803H16.7484V7.24403H23.3244V10.292H16.7484V14.732H24.7644V17.78H13.4844ZM25.4807 17.78L30.7607 0.500029H35.6327L40.9127 17.78H37.5527L32.8487 2.54003H33.4727L28.8407 17.78H25.4807ZM28.6487 14.18V11.132H37.7687V14.18H28.6487ZM42.1035 17.78V0.500029H47.6955C47.8315 0.500029 48.1115 0.504029 48.5355 0.512029C48.9595 0.520029 49.3675 0.548028 49.7595 0.596029C51.1515 0.764029 52.3315 1.24803 53.2995 2.04803C54.2675 2.84803 55.0035 3.86403 55.5075 5.09603C56.0115 6.32803 56.2635 7.67603 56.2635 9.14003C56.2635 10.604 56.0115 11.952 55.5075 13.184C55.0035 14.416 54.2675 15.432 53.2995 16.232C52.3315 17.032 51.1515 17.516 49.7595 17.684C49.3675 17.732 48.9595 17.76 48.5355 17.768C48.1115 17.776 47.8315 17.78 47.6955 17.78H42.1035ZM45.4155 14.708H47.6955C47.9115 14.708 48.2035 14.704 48.5715 14.696C48.9395 14.68 49.2715 14.644 49.5675 14.588C50.3195 14.436 50.9315 14.084 51.4035 13.532C51.8835 12.98 52.2355 12.316 52.4595 11.54C52.6915 10.764 52.8075 9.96403 52.8075 9.14003C52.8075 8.27603 52.6875 7.45603 52.4475 6.68003C52.2155 5.90403 51.8595 5.24803 51.3795 4.71203C50.8995 4.17603 50.2955 3.83603 49.5675 3.69203C49.2715 3.62803 48.9395 3.59203 48.5715 3.58403C48.2035 3.57603 47.9115 3.57203 47.6955 3.57203H45.4155V14.708ZM58.1825 17.78V0.500029H69.4625V3.54803H61.4465V7.24403H68.0225V10.292H61.4465V14.732H69.4625V17.78H58.1825ZM71.3788 17.78V0.500029H78.6748C78.8428 0.500029 79.0668 0.508029 79.3468 0.524028C79.6348 0.532029 79.8908 0.556029 80.1148 0.596029C81.1468 0.756029 81.9908 1.09603 82.6468 1.61603C83.3108 2.13603 83.7988 2.79203 84.1108 3.58403C84.4228 4.36803 84.5788 5.24403 84.5788 6.21203C84.5788 7.66003 84.2188 8.90003 83.4988 9.93203C82.7788 10.956 81.6508 11.588 80.1148 11.828L78.6748 11.924H74.6428V17.78H71.3788ZM81.1228 17.78L77.7148 10.748L81.0748 10.1L84.8188 17.78H81.1228ZM74.6428 8.87603H78.5308C78.6988 8.87603 78.8828 8.86803 79.0828 8.85203C79.2828 8.83603 79.4668 8.80403 79.6348 8.75603C80.0748 8.63603 80.4148 8.43603 80.6548 8.15603C80.8948 7.86803 81.0588 7.55203 81.1468 7.20803C81.2428 6.85603 81.2908 6.52403 81.2908 6.21203C81.2908 5.90003 81.2428 5.57203 81.1468 5.22803C81.0588 4.87603 80.8948 4.56003 80.6548 4.28003C80.4148 3.99203 80.0748 3.78803 79.6348 3.66803C79.4668 3.62003 79.2828 3.58803 79.0828 3.57203C78.8828 3.55603 78.6988 3.54803 78.5308 3.54803H74.6428V8.87603ZM8.66003 37.14C7.57203 37.14 6.53603 36.948 5.55203 36.564C4.56803 36.172 3.69603 35.596 2.93603 34.836C2.18403 34.076 1.58803 33.136 1.14803 32.016C0.716029 30.896 0.500029 29.604 0.500029 28.14C0.500029 26.228 0.864029 24.604 1.59203 23.268C2.32803 21.924 3.31203 20.9 4.54403 20.196C5.78403 19.492 7.15603 19.14 8.66003 19.14C10.884 19.14 12.632 19.656 13.904 20.688C15.176 21.72 16.028 23.18 16.46 25.068L13.124 25.548C12.812 24.54 12.3 23.736 11.588 23.136C10.884 22.528 9.98003 22.22 8.87603 22.212C7.78003 22.196 6.86803 22.432 6.14003 22.92C5.41203 23.408 4.86403 24.1 4.49603 24.996C4.13603 25.892 3.95603 26.94 3.95603 28.14C3.95603 29.34 4.13603 30.38 4.49603 31.26C4.86403 32.14 5.41203 32.824 6.14003 33.312C6.86803 33.8 7.78003 34.052 8.87603 34.068C9.62003 34.084 10.292 33.956 10.892 33.684C11.5 33.412 12.012 32.984 12.428 32.4C12.844 31.816 13.14 31.068 13.316 30.156H10.58V27.636H16.796C16.812 27.74 16.824 27.924 16.832 28.188C16.84 28.452 16.844 28.604 16.844 28.644C16.844 30.3 16.508 31.768 15.836 33.048C15.164 34.328 14.216 35.332 12.992 36.06C11.768 36.78 10.324 37.14 8.66003 37.14ZM18.2891 36.78V19.5H25.5851C25.7531 19.5 25.9771 19.508 26.2571 19.524C26.5451 19.532 26.8011 19.556 27.0251 19.596C28.0571 19.756 28.9011 20.096 29.5571 20.616C30.2211 21.136 30.7091 21.792 31.0211 22.584C31.3331 23.368 31.4891 24.244 31.4891 25.212C31.4891 26.66 31.1291 27.9 30.4091 28.932C29.6891 29.956 28.5611 30.588 27.0251 30.828L25.5851 30.924H21.5531V36.78H18.2891ZM28.0331 36.78L24.6251 29.748L27.9851 29.1L31.7291 36.78H28.0331ZM21.5531 27.876H25.4411C25.6091 27.876 25.7931 27.868 25.9931 27.852C26.1931 27.836 26.3771 27.804 26.5451 27.756C26.9851 27.636 27.3251 27.436 27.5651 27.156C27.8051 26.868 27.9691 26.552 28.0571 26.208C28.1531 25.856 28.2011 25.524 28.2011 25.212C28.2011 24.9 28.1531 24.572 28.0571 24.228C27.9691 23.876 27.8051 23.56 27.5651 23.28C27.3251 22.992 26.9851 22.788 26.5451 22.668C26.3771 22.62 26.1931 22.588 25.9931 22.572C25.7931 22.556 25.6091 22.548 25.4411 22.548H21.5531V27.876ZM40.8232 37.14C39.0952 37.14 37.6032 36.764 36.3472 36.012C35.0992 35.26 34.1352 34.208 33.4552 32.856C32.7832 31.504 32.4472 29.932 32.4472 28.14C32.4472 26.348 32.7832 24.776 33.4552 23.424C34.1352 22.072 35.0992 21.02 36.3472 20.268C37.6032 19.516 39.0952 19.14 40.8232 19.14C42.5512 19.14 44.0392 19.516 45.2872 20.268C46.5432 21.02 47.5072 22.072 48.1792 23.424C48.8592 24.776 49.1992 26.348 49.1992 28.14C49.1992 29.932 48.8592 31.504 48.1792 32.856C47.5072 34.208 46.5432 35.26 45.2872 36.012C44.0392 36.764 42.5512 37.14 40.8232 37.14ZM40.8232 34.068C41.9192 34.084 42.8312 33.848 43.5592 33.36C44.2872 32.872 44.8312 32.18 45.1912 31.284C45.5592 30.388 45.7432 29.34 45.7432 28.14C45.7432 26.94 45.5592 25.9 45.1912 25.02C44.8312 24.14 44.2872 23.456 43.5592 22.968C42.8312 22.48 41.9192 22.228 40.8232 22.212C39.7272 22.196 38.8152 22.432 38.0872 22.92C37.3592 23.408 36.8112 24.1 36.4432 24.996C36.0832 25.892 35.9032 26.94 35.9032 28.14C35.9032 29.34 36.0832 30.38 36.4432 31.26C36.8112 32.14 37.3592 32.824 38.0872 33.312C38.8152 33.8 39.7272 34.052 40.8232 34.068ZM57.6667 37.14C56.2747 37.14 55.0507 36.86 53.9947 36.3C52.9387 35.732 52.1147 34.936 51.5227 33.912C50.9307 32.888 50.6347 31.684 50.6347 30.3V19.524L53.9467 19.5V30.276C53.9467 30.844 54.0427 31.36 54.2347 31.824C54.4267 32.288 54.6907 32.688 55.0267 33.024C55.3707 33.36 55.7667 33.62 56.2147 33.804C56.6707 33.98 57.1547 34.068 57.6667 34.068C58.1947 34.068 58.6827 33.976 59.1307 33.792C59.5867 33.608 59.9827 33.348 60.3187 33.012C60.6547 32.676 60.9147 32.276 61.0987 31.812C61.2907 31.348 61.3867 30.836 61.3867 30.276V19.5H64.6987V30.3C64.6987 31.684 64.4027 32.888 63.8107 33.912C63.2187 34.936 62.3947 35.732 61.3387 36.3C60.2827 36.86 59.0587 37.14 57.6667 37.14ZM67.0888 36.78V19.5H74.3848C74.5528 19.5 74.7768 19.508 75.0568 19.524C75.3448 19.532 75.6008 19.556 75.8248 19.596C76.8568 19.756 77.7008 20.096 78.3568 20.616C79.0208 21.136 79.5088 21.792 79.8208 22.584C80.1328 23.368 80.2888 24.244 80.2888 25.212C80.2888 26.18 80.1288 27.06 79.8088 27.852C79.4968 28.636 79.0088 29.288 78.3448 29.808C77.6888 30.328 76.8488 30.668 75.8248 30.828C75.6008 30.86 75.3448 30.884 75.0568 30.9C74.7688 30.916 74.5448 30.924 74.3848 30.924H70.3528V36.78H67.0888ZM70.3528 27.876H74.2408C74.4088 27.876 74.5928 27.868 74.7928 27.852C74.9928 27.836 75.1768 27.804 75.3448 27.756C75.7848 27.636 76.1248 27.436 76.3648 27.156C76.6048 26.868 76.7688 26.552 76.8568 26.208C76.9528 25.856 77.0008 25.524 77.0008 25.212C77.0008 24.9 76.9528 24.572 76.8568 24.228C76.7688 23.876 76.6048 23.56 76.3648 23.28C76.1248 22.992 75.7848 22.788 75.3448 22.668C75.1768 22.62 74.9928 22.588 74.7928 22.572C74.5928 22.556 74.4088 22.548 74.2408 22.548H70.3528V27.876Z" />

    <path
        d="M1.70003 17.78V0.500029H4.96403V14.732H12.404V17.78H1.70003ZM13.4844 17.78V0.500029H24.7644V3.54803H16.7484V7.24403H23.3244V10.292H16.7484V14.732H24.7644V17.78H13.4844ZM25.4807 17.78L30.7607 0.500029H35.6327L40.9127 17.78H37.5527L32.8487 2.54003H33.4727L28.8407 17.78H25.4807ZM28.6487 14.18V11.132H37.7687V14.18H28.6487ZM42.1035 17.78V0.500029H47.6955C47.8315 0.500029 48.1115 0.504029 48.5355 0.512029C48.9595 0.520029 49.3675 0.548028 49.7595 0.596029C51.1515 0.764029 52.3315 1.24803 53.2995 2.04803C54.2675 2.84803 55.0035 3.86403 55.5075 5.09603C56.0115 6.32803 56.2635 7.67603 56.2635 9.14003C56.2635 10.604 56.0115 11.952 55.5075 13.184C55.0035 14.416 54.2675 15.432 53.2995 16.232C52.3315 17.032 51.1515 17.516 49.7595 17.684C49.3675 17.732 48.9595 17.76 48.5355 17.768C48.1115 17.776 47.8315 17.78 47.6955 17.78H42.1035ZM45.4155 14.708H47.6955C47.9115 14.708 48.2035 14.704 48.5715 14.696C48.9395 14.68 49.2715 14.644 49.5675 14.588C50.3195 14.436 50.9315 14.084 51.4035 13.532C51.8835 12.98 52.2355 12.316 52.4595 11.54C52.6915 10.764 52.8075 9.96403 52.8075 9.14003C52.8075 8.27603 52.6875 7.45603 52.4475 6.68003C52.2155 5.90403 51.8595 5.24803 51.3795 4.71203C50.8995 4.17603 50.2955 3.83603 49.5675 3.69203C49.2715 3.62803 48.9395 3.59203 48.5715 3.58403C48.2035 3.57603 47.9115 3.57203 47.6955 3.57203H45.4155V14.708ZM58.1825 17.78V0.500029H69.4625V3.54803H61.4465V7.24403H68.0225V10.292H61.4465V14.732H69.4625V17.78H58.1825ZM71.3788 17.78V0.500029H78.6748C78.8428 0.500029 79.0668 0.508029 79.3468 0.524028C79.6348 0.532029 79.8908 0.556029 80.1148 0.596029C81.1468 0.756029 81.9908 1.09603 82.6468 1.61603C83.3108 2.13603 83.7988 2.79203 84.1108 3.58403C84.4228 4.36803 84.5788 5.24403 84.5788 6.21203C84.5788 7.66003 84.2188 8.90003 83.4988 9.93203C82.7788 10.956 81.6508 11.588 80.1148 11.828L78.6748 11.924H74.6428V17.78H71.3788ZM81.1228 17.78L77.7148 10.748L81.0748 10.1L84.8188 17.78H81.1228ZM74.6428 8.87603H78.5308C78.6988 8.87603 78.8828 8.86803 79.0828 8.85203C79.2828 8.83603 79.4668 8.80403 79.6348 8.75603C80.0748 8.63603 80.4148 8.43603 80.6548 8.15603C80.8948 7.86803 81.0588 7.55203 81.1468 7.20803C81.2428 6.85603 81.2908 6.52403 81.2908 6.21203C81.2908 5.90003 81.2428 5.57203 81.1468 5.22803C81.0588 4.87603 80.8948 4.56003 80.6548 4.28003C80.4148 3.99203 80.0748 3.78803 79.6348 3.66803C79.4668 3.62003 79.2828 3.58803 79.0828 3.57203C78.8828 3.55603 78.6988 3.54803 78.5308 3.54803H74.6428V8.87603ZM8.66003 37.14C7.57203 37.14 6.53603 36.948 5.55203 36.564C4.56803 36.172 3.69603 35.596 2.93603 34.836C2.18403 34.076 1.58803 33.136 1.14803 32.016C0.716029 30.896 0.500029 29.604 0.500029 28.14C0.500029 26.228 0.864029 24.604 1.59203 23.268C2.32803 21.924 3.31203 20.9 4.54403 20.196C5.78403 19.492 7.15603 19.14 8.66003 19.14C10.884 19.14 12.632 19.656 13.904 20.688C15.176 21.72 16.028 23.18 16.46 25.068L13.124 25.548C12.812 24.54 12.3 23.736 11.588 23.136C10.884 22.528 9.98003 22.22 8.87603 22.212C7.78003 22.196 6.86803 22.432 6.14003 22.92C5.41203 23.408 4.86403 24.1 4.49603 24.996C4.13603 25.892 3.95603 26.94 3.95603 28.14C3.95603 29.34 4.13603 30.38 4.49603 31.26C4.86403 32.14 5.41203 32.824 6.14003 33.312C6.86803 33.8 7.78003 34.052 8.87603 34.068C9.62003 34.084 10.292 33.956 10.892 33.684C11.5 33.412 12.012 32.984 12.428 32.4C12.844 31.816 13.14 31.068 13.316 30.156H10.58V27.636H16.796C16.812 27.74 16.824 27.924 16.832 28.188C16.84 28.452 16.844 28.604 16.844 28.644C16.844 30.3 16.508 31.768 15.836 33.048C15.164 34.328 14.216 35.332 12.992 36.06C11.768 36.78 10.324 37.14 8.66003 37.14ZM18.2891 36.78V19.5H25.5851C25.7531 19.5 25.9771 19.508 26.2571 19.524C26.5451 19.532 26.8011 19.556 27.0251 19.596C28.0571 19.756 28.9011 20.096 29.5571 20.616C30.2211 21.136 30.7091 21.792 31.0211 22.584C31.3331 23.368 31.4891 24.244 31.4891 25.212C31.4891 26.66 31.1291 27.9 30.4091 28.932C29.6891 29.956 28.5611 30.588 27.0251 30.828L25.5851 30.924H21.5531V36.78H18.2891ZM28.0331 36.78L24.6251 29.748L27.9851 29.1L31.7291 36.78H28.0331ZM21.5531 27.876H25.4411C25.6091 27.876 25.7931 27.868 25.9931 27.852C26.1931 27.836 26.3771 27.804 26.5451 27.756C26.9851 27.636 27.3251 27.436 27.5651 27.156C27.8051 26.868 27.9691 26.552 28.0571 26.208C28.1531 25.856 28.2011 25.524 28.2011 25.212C28.2011 24.9 28.1531 24.572 28.0571 24.228C27.9691 23.876 27.8051 23.56 27.5651 23.28C27.3251 22.992 26.9851 22.788 26.5451 22.668C26.3771 22.62 26.1931 22.588 25.9931 22.572C25.7931 22.556 25.6091 22.548 25.4411 22.548H21.5531V27.876ZM40.8232 37.14C39.0952 37.14 37.6032 36.764 36.3472 36.012C35.0992 35.26 34.1352 34.208 33.4552 32.856C32.7832 31.504 32.4472 29.932 32.4472 28.14C32.4472 26.348 32.7832 24.776 33.4552 23.424C34.1352 22.072 35.0992 21.02 36.3472 20.268C37.6032 19.516 39.0952 19.14 40.8232 19.14C42.5512 19.14 44.0392 19.516 45.2872 20.268C46.5432 21.02 47.5072 22.072 48.1792 23.424C48.8592 24.776 49.1992 26.348 49.1992 28.14C49.1992 29.932 48.8592 31.504 48.1792 32.856C47.5072 34.208 46.5432 35.26 45.2872 36.012C44.0392 36.764 42.5512 37.14 40.8232 37.14ZM40.8232 34.068C41.9192 34.084 42.8312 33.848 43.5592 33.36C44.2872 32.872 44.8312 32.18 45.1912 31.284C45.5592 30.388 45.7432 29.34 45.7432 28.14C45.7432 26.94 45.5592 25.9 45.1912 25.02C44.8312 24.14 44.2872 23.456 43.5592 22.968C42.8312 22.48 41.9192 22.228 40.8232 22.212C39.7272 22.196 38.8152 22.432 38.0872 22.92C37.3592 23.408 36.8112 24.1 36.4432 24.996C36.0832 25.892 35.9032 26.94 35.9032 28.14C35.9032 29.34 36.0832 30.38 36.4432 31.26C36.8112 32.14 37.3592 32.824 38.0872 33.312C38.8152 33.8 39.7272 34.052 40.8232 34.068ZM57.6667 37.14C56.2747 37.14 55.0507 36.86 53.9947 36.3C52.9387 35.732 52.1147 34.936 51.5227 33.912C50.9307 32.888 50.6347 31.684 50.6347 30.3V19.524L53.9467 19.5V30.276C53.9467 30.844 54.0427 31.36 54.2347 31.824C54.4267 32.288 54.6907 32.688 55.0267 33.024C55.3707 33.36 55.7667 33.62 56.2147 33.804C56.6707 33.98 57.1547 34.068 57.6667 34.068C58.1947 34.068 58.6827 33.976 59.1307 33.792C59.5867 33.608 59.9827 33.348 60.3187 33.012C60.6547 32.676 60.9147 32.276 61.0987 31.812C61.2907 31.348 61.3867 30.836 61.3867 30.276V19.5H64.6987V30.3C64.6987 31.684 64.4027 32.888 63.8107 33.912C63.2187 34.936 62.3947 35.732 61.3387 36.3C60.2827 36.86 59.0587 37.14 57.6667 37.14ZM67.0888 36.78V19.5H74.3848C74.5528 19.5 74.7768 19.508 75.0568 19.524C75.3448 19.532 75.6008 19.556 75.8248 19.596C76.8568 19.756 77.7008 20.096 78.3568 20.616C79.0208 21.136 79.5088 21.792 79.8208 22.584C80.1328 23.368 80.2888 24.244 80.2888 25.212C80.2888 26.18 80.1288 27.06 79.8088 27.852C79.4968 28.636 79.0088 29.288 78.3448 29.808C77.6888 30.328 76.8488 30.668 75.8248 30.828C75.6008 30.86 75.3448 30.884 75.0568 30.9C74.7688 30.916 74.5448 30.924 74.3848 30.924H70.3528V36.78H67.0888ZM70.3528 27.876H74.2408C74.4088 27.876 74.5928 27.868 74.7928 27.852C74.9928 27.836 75.1768 27.804 75.3448 27.756C75.7848 27.636 76.1248 27.436 76.3648 27.156C76.6048 26.868 76.7688 26.552 76.8568 26.208C76.9528 25.856 77.0008 25.524 77.0008 25.212C77.0008 24.9 76.9528 24.572 76.8568 24.228C76.7688 23.876 76.6048 23.56 76.3648 23.28C76.1248 22.992 75.7848 22.788 75.3448 22.668C75.1768 22.62 74.9928 22.588 74.7928 22.572C74.5928 22.556 74.4088 22.548 74.2408 22.548H70.3528V27.876Z"
        fill="#262626" />
    </svg>